<svg viewBox="0 0 338 92" fill="currentColor" xmlns="http://www.w3.org/2000/svg">
<path id="X" d="M297.81 91L309.842 46.2L297.81 1.39999H310.61L317.394 32.504L324.306 1.39999H337.106L324.946 46.2L337.106 91H324.306L317.394 59.896L310.61 91H297.81Z" fill="currentColor"/>
<path id="-" d="M292.63 46.328V58.488H268.31V46.328H292.63Z" fill="currentColor"/>
<path id="T" d="M263.2 79.608C263.2 83.192 262.091 86.0933 259.872 88.312C257.653 90.4453 254.752 91.512 251.168 91.512H243.232C239.648 91.512 236.747 90.4453 234.528 88.312C232.309 86.0933 231.2 83.192 231.2 79.608V13.304H229.28L230.56 1.39999H243.36V78.968C243.36 79.3947 243.573 79.608 244 79.608H250.4C250.827 79.608 251.04 79.3947 251.04 78.968V1.656H263.2V79.608Z" fill="currentColor"/>
<path id="S" d="M212.386 51.448V91H200.226V51.448L185.25 1.39999H197.41L206.37 31.224L215.202 1.39999H227.362L212.386 51.448Z" fill="currentColor"/>
<path id="U" d="M182.075 79.608C182.075 83.192 180.966 86.0933 178.747 88.312C176.528 90.4453 173.627 91.512 170.043 91.512H162.107C158.523 91.512 155.622 90.4453 153.403 88.312C151.184 86.0933 150.075 83.192 150.075 79.608V13.304H148.155L149.435 1.39999H162.235V78.968C162.235 79.3947 162.448 79.608 162.875 79.608H169.275C169.702 79.608 169.915 79.3947 169.915 78.968V1.656H182.075V79.608Z" fill="currentColor"/>
<path id="Y" d="M125.72 65.4V78.968C125.72 79.3947 125.933 79.608 126.36 79.608H131.48C131.907 79.608 132.12 79.3947 132.12 78.968V55.928L122.008 51.448C121.24 51.192 120.173 50.7653 118.808 50.168C117.443 49.4853 116.205 48.504 115.096 47.224C114.072 45.944 113.56 44.1947 113.56 41.976V12.792C113.56 9.208 114.669 6.34933 116.888 4.216C119.107 1.99733 122.008 0.888 125.592 0.888H132.248C135.832 0.888 138.733 1.99733 140.952 4.216C143.171 6.34933 144.28 9.208 144.28 12.792V31.736L132.12 30.712V13.432C132.12 13.0053 131.907 12.792 131.48 12.792H126.36C125.933 12.792 125.72 13.0053 125.72 13.432V40.184L135.832 44.664C136.6 45.0053 137.667 45.4747 139.032 46.072C140.397 46.6693 141.592 47.608 142.616 48.888C143.725 50.168 144.28 51.9173 144.28 54.136V79.608C144.28 83.192 143.171 86.0933 140.952 88.312C138.733 90.4453 135.832 91.512 132.248 91.512H125.592C122.008 91.512 119.107 90.4453 116.888 88.312C114.669 86.0933 113.56 83.192 113.56 79.608V65.4H125.72Z" fill="currentColor"/>
<path id="U" d="M74.435 13.304V1.39999H109.635V13.304H98.115V91H85.955V13.304H74.435Z" fill="currentColor"/>
<path id="-" d="M69.255 46.328V58.488H44.935V46.328H69.255Z" fill="currentColor"/>
<path id="X" d="M0.559998 91L12.592 46.2L0.559998 1.39999H13.36L20.144 32.504L27.056 1.39999H39.856L27.696 46.2L39.856 91H27.056L20.144 59.896L13.36 91H0.559998Z" fill="currentColor"/>
</svg>
